<?xml version="1.0" encoding="UTF-8" standalone="no"?>
<svg
   width="16"
   height="16"
   fill="currentColor"
   class="bi bi-tag"
   viewBox="0 0 16 16"
   version="1.1"
   id="svg2"
   sodipodi:docname="tag.svg"
   inkscape:version="1.3 (0e150ed6c4, 2023-07-21)"
   xmlns:inkscape="http://www.inkscape.org/namespaces/inkscape"
   xmlns:sodipodi="http://sodipodi.sourceforge.net/DTD/sodipodi-0.dtd"
   xmlns="http://www.w3.org/2000/svg"
   xmlns:svg="http://www.w3.org/2000/svg">
  <defs
     id="defs2" />
  <sodipodi:namedview
     id="namedview2"
     pagecolor="#ffffff"
     bordercolor="#000000"
     borderopacity="0.25"
     inkscape:showpageshadow="2"
     inkscape:pageopacity="0.0"
     inkscape:pagecheckerboard="0"
     inkscape:deskcolor="#d1d1d1"
     inkscape:zoom="51.3125"
     inkscape:cx="8"
     inkscape:cy="8"
     inkscape:window-width="1920"
     inkscape:window-height="1017"
     inkscape:window-x="-8"
     inkscape:window-y="-8"
     inkscape:window-maximized="1"
     inkscape:current-layer="svg2" />
  <path
     style="fill:#00ffff;stroke-width:0.0194884"
     d="M 8.6918392,14.523076 C 8.6221681,14.499141 8.5169306,14.447123 8.4579781,14.407479 8.3962317,14.365957 6.8334347,12.81694 4.7715652,10.753571 1.5588257,7.5384953 1.1861491,7.1592838 1.1318885,7.0500736 1.0072765,6.799267 1.0133983,6.9419787 1.0133983,4.2878102 c 0,-2.283271 0.00198,-2.4249209 0.035673,-2.5464116 0.1022592,-0.3687783 0.434166,-0.6625321 0.8120739,-0.7187253 0.090402,-0.013442 0.9417209,-0.018428 2.5237516,-0.01478 l 2.3873325,0.0055 0.1301576,0.05067 c 0.071587,0.027869 0.1724392,0.077983 0.2241169,0.1113651 0.051678,0.033382 1.7093158,1.6768415 3.6836402,3.6521315 3.498676,3.5003871 3.591397,3.5950437 3.657362,3.7337306 0.171901,0.36141 0.133378,0.727201 -0.110211,1.0464998 -0.04906,0.064312 -1.139964,1.1655407 -2.424225,2.4471737 -2.5024475,2.49733 -2.3977317,2.400178 -2.6747311,2.48154 -0.1572977,0.0462 -0.410377,0.0402 -0.5664994,-0.01343 z M 11.308135,11.298442 13.602934,9.0037053 10.099904,5.5006345 6.5968737,1.9975639 h -2.304527 -2.304527 v 2.2947423 2.2947422 l 3.5030248,3.5030656 c 1.9266637,1.926686 3.5074049,3.503065 3.5127585,3.503065 0.00535,0 1.042393,-1.032632 2.304532,-2.294737 z"
     id="path3" />
  <path
     style="fill:#00ffff;stroke-width:0.0194884"
     d="M 4.2283103,5.9649785 C 3.7495659,5.8644369 3.3784827,5.577692 3.1580953,5.1379981 2.9637754,4.7503112 2.9676387,4.2432949 3.1679539,3.8441533 3.2618437,3.6570715 3.3479235,3.5426267 3.4973377,3.406231 4.4536853,2.5332097 5.9829476,3.2072711 5.9829476,4.501827 5.9829476,5.0803829 5.66188,5.586836 5.135201,5.8390651 5.0494519,5.8801308 4.9266748,5.927473 4.862363,5.9442703 4.6971001,5.9874344 4.3839393,5.9976622 4.2283103,5.9649785 Z M 4.7219196,4.954529 C 4.9679072,4.8512288 5.0806225,4.5141436 4.9528949,4.2637769 4.8756737,4.1124108 4.6698575,3.9853837 4.501827,3.9853837 c -0.1019015,0 -0.2559234,0.060892 -0.3355226,0.1326467 -0.3122286,0.2814602 -0.170489,0.8156027 0.2332633,0.8790477 0.1173369,0.018438 0.2045309,0.00693 0.3223519,-0.042549 z"
     id="path4" />
</svg>
