<?xml version="1.0" encoding="UTF-8" standalone="no"?>
<svg
   width="16"
   height="16"
   fill="currentColor"
   class="bi bi-tags"
   viewBox="0 0 16 16"
   version="1.1"
   id="svg2"
   sodipodi:docname="tags.svg"
   inkscape:version="1.3 (0e150ed6c4, 2023-07-21)"
   xmlns:inkscape="http://www.inkscape.org/namespaces/inkscape"
   xmlns:sodipodi="http://sodipodi.sourceforge.net/DTD/sodipodi-0.dtd"
   xmlns="http://www.w3.org/2000/svg"
   xmlns:svg="http://www.w3.org/2000/svg">
  <defs
     id="defs2" />
  <sodipodi:namedview
     id="namedview2"
     pagecolor="#ffffff"
     bordercolor="#000000"
     borderopacity="0.25"
     inkscape:showpageshadow="2"
     inkscape:pageopacity="0.0"
     inkscape:pagecheckerboard="0"
     inkscape:deskcolor="#d1d1d1"
     inkscape:zoom="51.3125"
     inkscape:cx="8"
     inkscape:cy="8"
     inkscape:window-width="1920"
     inkscape:window-height="1017"
     inkscape:window-x="-8"
     inkscape:window-y="-8"
     inkscape:window-maximized="1"
     inkscape:current-layer="svg2" />
  <path
     style="display:inline;fill:#00ffff;stroke-width:0.0194884"
     d="M 7.8015526,15.552893 C 7.6380165,15.515736 7.534446,15.466719 7.3958587,15.360888 7.3315469,15.311778 5.6821887,13.672758 3.7306183,11.718624 L 0.18230856,8.1656516 0.11011896,8.0077626 C 0.05761731,7.8929339 0.03279755,7.8052365 0.01911259,7.6862036 -0.00678751,7.4609222 -0.00615172,3.1099353 0.01981292,2.8935204 0.06782664,2.4933269 0.34764098,2.1646413 0.73922535,2.0484584 0.79744364,2.0311851 0.87856423,2.0170524 0.91949332,2.0170524 h 0.0744166 v 2.5795568 c 0,1.6512632 0.007067,2.6168203 0.0196375,2.6831053 0.029767,0.1569582 0.09842,0.2884704 0.2341707,0.4485743 0.067636,0.07977 1.780064,1.8038398 3.8053951,3.8312662 2.2152705,2.217562 3.6770093,3.694985 3.6688393,3.708204 -0.00747,0.01209 -0.075864,0.06571 -0.1519873,0.119173 -0.2278969,0.160046 -0.5183491,0.222777 -0.7684126,0.165961 z"
     id="path10" />
  <path
     style="display:inline;fill:#00ffff;stroke-width:0.0194884"
     d="M 9.7564445,14.545963 C 9.7149373,14.536216 9.6184696,14.496237 9.5420718,14.457122 9.4116878,14.390365 9.1818261,14.164727 5.7949607,10.778872 2.2308635,7.2158377 2.185914,7.1699551 2.1179951,7.0255786 2.0801774,6.9451888 2.039802,6.8273783 2.0282719,6.7637776 2.0140509,6.6853332 2.0074008,5.8861416 2.0075962,4.279003 2.0079126,1.677048 2.0030256,1.7894519 2.1264652,1.5449195 2.2562717,1.2877742 2.5553592,1.0712022 2.8453106,1.0243969 3.0156908,0.9968934 7.560022,0.99615748 7.7369062,1.0236048 c 0.075114,0.011656 0.1901342,0.05087 0.2825822,0.096342 0.155193,0.076334 0.1724812,0.09328 3.7723056,3.6976143 2.787369,2.7908611 3.62824,3.6436013 3.668055,3.7198301 0.164017,0.31402 0.142466,0.7157137 -0.05418,1.0098227 -0.03661,0.054757 -1.134673,1.1660791 -2.440138,2.4696021 -2.493604,2.489896 -2.448595,2.447796 -2.693797,2.519731 -0.115513,0.03389 -0.3897406,0.0389 -0.5152925,0.0094 z M 12.306948,11.293539 14.606526,8.9938993 11.108399,5.4957316 7.6102722,1.9975639 H 5.2960008 2.9817296 v 2.2947423 2.2947422 l 3.5030248,3.5030656 c 1.9266637,1.926686 3.5074327,3.503065 3.5128203,3.503065 0.00539,0 1.0446053,-1.034838 2.3093733,-2.29964 z"
     id="path11" />
  <path
     style="display:inline;fill:#00ffff;stroke-width:0.0194884"
     d="M 5.2326431,5.9635079 C 4.6331281,5.8507136 4.1653781,5.390278 4.0412521,4.7907474 3.9954042,4.5693016 4.0122727,4.2598812 4.0814391,4.0535932 4.2227519,3.6321291 4.5339848,3.2915786 4.9291906,3.1259846 5.1297043,3.0419681 5.3548914,3.0038168 5.5729656,3.0169161 5.8153126,3.0314734 5.9518959,3.0685091 6.1778319,3.1809302 6.504877,3.3436612 6.7881582,3.6701061 6.9079433,4.0222885 7.0139319,4.3339082 7.0140722,4.6561388 6.9083574,4.9733691 6.7705555,5.386887 6.411719,5.7562226 6.0119928,5.89596 5.7420685,5.9903211 5.4908757,6.0120926 5.2326431,5.9635079 Z M 5.7017827,4.9694388 C 5.8712435,4.9008247 6.0019923,4.7015081 6.0021369,4.5115713 6.0022648,4.3438631 5.9712982,4.2654299 5.8597038,4.1508113 5.7787596,4.0676735 5.7358395,4.0405767 5.6424571,4.0136568 5.2672098,3.9054819 4.9205283,4.2331539 5.0060247,4.6151919 5.0737523,4.917831 5.4084119,5.0882237 5.7017827,4.9694388 Z"
     id="path12" />
</svg>
